<?xml version="1.0" standalone="no"?>
<!DOCTYPE svg PUBLIC "-//W3C//DTD SVG 20010904//EN"
 "http://www.w3.org/TR/2001/REC-SVG-20010904/DTD/svg10.dtd">
<svg version="1.0" xmlns="http://www.w3.org/2000/svg"
 width="700.000000pt" height="700.000000pt" viewBox="0 0 700.000000 700.000000"
 preserveAspectRatio="xMidYMid meet">
<metadata>
Created by potrace 1.14, written by Peter Selinger 2001-2017
</metadata>
<g transform="translate(0.000000,700.000000) scale(0.100000,-0.100000)"
fill="#000000" stroke="none">
<path d="M3462 6982 c-75 -27 -127 -75 -164 -151 -20 -40 -23 -65 -26 -191 -2
-80 -7 -148 -10 -152 -4 -3 -36 -9 -72 -13 -36 -4 -74 -9 -85 -11 -11 -2 -33
-7 -50 -10 -16 -3 -61 -12 -100 -20 -38 -8 -81 -17 -95 -20 -120 -24 -416
-130 -570 -204 -340 -164 -670 -412 -918 -689 -367 -413 -631 -953 -708 -1451
-3 -19 -9 -60 -14 -90 -5 -30 -11 -72 -12 -92 -1 -21 -5 -38 -8 -39 -3 -1 -66
-2 -140 -3 -105 -1 -147 -6 -188 -21 -66 -24 -128 -83 -160 -153 -21 -46 -24
-65 -20 -126 6 -84 27 -135 80 -187 36 -36 55 -47 129 -77 14 -6 67 -10 118
-11 50 0 113 0 141 -1 27 0 49 -3 48 -7 -2 -9 9 -122 17 -168 54 -308 133
-557 262 -823 30 -62 42 -97 35 -105 -5 -7 -47 -59 -93 -117 -47 -58 -168
-208 -269 -335 -102 -126 -187 -232 -190 -235 -3 -3 -41 -50 -85 -105 -44 -55
-82 -102 -85 -105 -15 -14 -149 -190 -171 -225 -81 -126 -74 -331 16 -470 33
-52 437 -460 490 -496 133 -89 324 -101 466 -28 31 15 506 389 664 521 31 25
394 318 443 357 l43 33 62 -30 c227 -112 524 -217 692 -245 17 -3 66 -13 110
-21 69 -14 173 -28 211 -29 8 0 13 -47 16 -151 4 -169 16 -211 80 -277 54 -58
111 -82 196 -85 111 -5 195 40 256 136 34 52 39 82 42 230 1 74 3 138 3 142 1
4 9 6 19 6 35 -2 131 13 312 48 121 24 331 89 475 147 115 46 250 110 272 129
7 6 13 8 13 4 0 -3 25 10 55 29 30 19 57 35 60 35 3 0 59 36 125 80 507 340
892 815 1113 1375 91 232 159 495 182 710 4 33 10 63 14 68 4 4 72 8 152 10
164 3 203 15 273 84 59 58 81 114 80 203 -1 89 -18 134 -75 195 -66 71 -119
88 -287 89 -157 1 -147 -3 -156 71 -10 74 -16 121 -21 144 -2 13 10 53 30 94
44 93 107 270 120 336 2 13 9 47 15 75 32 146 45 409 26 541 -3 22 -8 60 -12
85 -36 263 -181 583 -368 810 -351 428 -847 663 -1379 654 -90 -1 -212 -11
-252 -19 -11 -3 -31 -7 -45 -9 -111 -18 -413 -120 -476 -161 -20 -13 -48 -13
-109 -1 -11 2 -50 7 -87 11 -38 4 -68 10 -69 14 0 3 -2 65 -3 136 -1 79 -8
149 -16 179 -18 61 -84 137 -144 165 -63 31 -158 36 -224 13z m-192 -1184 c0
-62 5 -132 10 -155 9 -38 5 -57 -34 -175 -24 -73 -47 -146 -50 -163 -26 -147
-40 -253 -38 -289 1 -14 -22 3 -76 57 -55 55 -92 83 -128 96 -58 22 -126 20
-179 -5 -40 -19 -783 -757 -816 -811 -18 -30 -23 -53 -24 -109 0 -92 15 -115
196 -295 77 -76 139 -141 139 -144 0 -2 -7 -13 -15 -22 -8 -10 -85 -106 -172
-214 -87 -108 -172 -214 -189 -235 -18 -21 -92 -113 -165 -204 -309 -384 -342
-426 -354 -438 -10 -11 -19 3 -45 75 -17 48 -44 138 -60 198 -27 106 -63 295
-58 301 2 1 62 4 134 6 121 4 135 6 188 33 159 80 207 272 105 421 -61 90
-145 121 -322 120 l-108 -1 5 35 c43 284 111 500 236 746 236 464 616 838
1080 1061 170 82 408 163 550 188 19 4 67 13 105 20 39 7 73 13 78 14 4 1 7
-50 7 -111z m2435 -2524 c22 -2 77 -3 122 -3 l83 -1 -6 -32 c-46 -258 -94
-427 -175 -616 -266 -621 -802 -1106 -1454 -1317 -111 -36 -319 -83 -390 -87
l-39 -3 -1 115 c-1 138 -8 171 -47 233 -52 82 -142 131 -242 130 -113 -1 -212
-66 -259 -172 -17 -37 -22 -73 -25 -179 -4 -117 -6 -132 -21 -128 -9 2 -43 7
-75 11 -33 4 -70 11 -82 15 -12 5 -41 12 -65 15 -51 8 -246 66 -307 92 l-43
18 123 99 c68 55 213 172 323 260 110 88 202 163 205 166 3 3 37 30 75 60 39
30 79 63 90 73 11 10 45 37 75 60 30 23 57 44 60 47 9 10 155 126 167 134 8 4
67 -48 163 -143 82 -83 164 -158 182 -167 44 -23 138 -26 188 -7 30 12 137
113 426 402 223 223 394 402 405 424 28 55 31 135 7 189 -10 23 -53 77 -94
119 l-75 75 43 2 c24 1 54 4 68 7 14 2 45 7 70 10 82 10 224 46 315 80 70 26
99 32 130 27 22 -3 58 -7 80 -8z"/>
</g>
</svg>
