<?xml version="1.0" encoding="UTF-8" standalone="no"?>
<svg
   id="Icons"
   height="520.78094"
   viewBox="0 0 61.022952 61.029017"
   width="520.72919"
   version="1.1"
   xmlns="http://www.w3.org/2000/svg"
   xmlns:svg="http://www.w3.org/2000/svg">
  <defs
     id="defs59" />
  <path
     d="m 19.819013,27.850001 -18.93900029,23.509 a 4,4 0 0 0 0.28999999,5.33 l 3.17,3.17 a 4,4 0 0 0 5.33,0.29 l 23.5090003,-18.939 z"
     fill="#2980ba"
     id="path6"
     style="display:inline;fill:#9db4c0;fill-opacity:1" />
  <g
     id="g528"
     transform="translate(6.747864,0.88672655)"
     style="display:inline;fill:#c6403f;fill-opacity:1">
    <path
       d="m 24.275085,54.738273 c -14.13,0 -25.6250001,-11.495 -25.6250001,-25.625 0,-14.13 11.4950001,-25.6249995 25.6250001,-25.6249995 14.13,0 25.625,11.4949995 25.625,25.6249995 0,14.13 -11.495,25.625 -25.625,25.625 z m 0,-46.2499995 c -11.3725,0 -20.6250001,9.2524995 -20.6250001,20.6249995 0,11.3725 9.2525001,20.625 20.6250001,20.625 11.3725,0 20.625,-9.2525 20.625,-20.625 0,-11.3725 -9.2525,-20.6249995 -20.625,-20.6249995 z"
       id="path446"
       style="fill:#c6403f;fill-opacity:1;stroke-width:2.5" />
    <path
       d="m 24.275085,12.863273 c -1.38,0 -2.5,-1.12 -2.5,-2.5 V 1.6132734 c 0,-1.37999995 1.12,-2.49999995 2.5,-2.49999995 1.38,0 2.5,1.12 2.5,2.49999995 v 8.7499996 c 0,1.38 -1.12,2.5 -2.5,2.5 z"
       id="path448"
       style="fill:#c6403f;fill-opacity:1;stroke-width:2.5" />
    <path
       d="m 51.775085,31.613273 h -8.75 c -1.38,0 -2.5,-1.12 -2.5,-2.5 0,-1.38 1.12,-2.5 2.5,-2.5 h 8.75 c 1.38,0 2.5,1.12 2.5,2.5 0,1.38 -1.12,2.5 -2.5,2.5 z"
       id="path450"
       style="fill:#c6403f;fill-opacity:1;stroke-width:2.5" />
    <path
       d="m 24.275085,59.113273 c -1.38,0 -2.5,-1.12 -2.5,-2.5 v -8.75 c 0,-1.38 1.12,-2.5 2.5,-2.5 1.38,0 2.5,1.12 2.5,2.5 v 8.75 c 0,1.38 -1.12,2.5 -2.5,2.5 z"
       id="path452"
       style="fill:#c6403f;fill-opacity:1;stroke-width:2.5" />
    <path
       d="m 5.5250849,31.613273 h -8.75 c -1.38,0 -2.5,-1.12 -2.5,-2.5 0,-1.38 1.12,-2.5 2.5,-2.5 h 8.75 c 1.38,0 2.5,1.12 2.5,2.5 0,1.38 -1.12,2.5 -2.5,2.5 z"
       id="path454"
       style="fill:#c6403f;fill-opacity:1;stroke-width:2.5" />
  </g>
  <path
     d="m 53.532013,7.4970011 c -9.325373,-9.3354238 -25.301946,-3.2266262 -26.02,9.9489999 15.0545,15.854611 0.03121,0.480155 16.071,16.071 13.175626,-0.718054 19.284424,-16.694627 9.949,-26.0199999 z"
     fill="#547580"
     id="path2"
     style="display:inline;fill:#5c6b73;fill-opacity:1" />
  <g
     fill="#3f5c6c"
     id="g54"
     style="display:inline;fill:#253237;fill-opacity:1"
     transform="translate(-1.0009873,2.0300012)">
    <circle
       cx="50.936001"
       cy="9.0640001"
       r="1"
       id="circle8"
       style="fill:#253237;fill-opacity:1" />
    <circle
       cx="48.057999"
       cy="6.1869998"
       r="1"
       id="circle10"
       style="fill:#253237;fill-opacity:1" />
    <circle
       cx="53.813"
       cy="11.942"
       r="1"
       id="circle12"
       style="fill:#253237;fill-opacity:1" />
    <circle
       cx="39.425999"
       cy="20.573999"
       r="1"
       id="circle14"
       style="fill:#253237;fill-opacity:1" />
    <circle
       cx="36.548"
       cy="17.697001"
       r="1"
       id="circle16"
       style="fill:#253237;fill-opacity:1" />
    <circle
       cx="42.303001"
       cy="23.452"
       r="1"
       id="circle18"
       style="fill:#253237;fill-opacity:1" />
    <circle
       cx="45.181"
       cy="9.0640001"
       r="1"
       id="circle20"
       style="fill:#253237;fill-opacity:1" />
    <circle
       cx="42.303001"
       cy="6.1869998"
       r="1"
       id="circle22"
       style="fill:#253237;fill-opacity:1" />
    <circle
       cx="53.813"
       cy="17.697001"
       r="1"
       id="circle24"
       style="fill:#253237;fill-opacity:1" />
    <circle
       cx="50.936001"
       cy="14.819"
       r="1"
       id="circle26"
       style="fill:#253237;fill-opacity:1" />
    <circle
       cx="48.057999"
       cy="11.942"
       r="1"
       id="circle28"
       style="fill:#253237;fill-opacity:1" />
    <circle
       cx="43.742001"
       cy="13.381"
       r="1"
       id="circle30"
       style="fill:#253237;fill-opacity:1" />
    <circle
       cx="40.863998"
       cy="10.503"
       r="1"
       id="circle32"
       style="fill:#253237;fill-opacity:1" />
    <circle
       cx="37.987"
       cy="7.625"
       r="1"
       id="circle34"
       style="fill:#253237;fill-opacity:1" />
    <circle
       cx="52.375"
       cy="22.013"
       r="1"
       id="circle36"
       style="fill:#253237;fill-opacity:1" />
    <circle
       cx="49.497002"
       cy="19.136"
       r="1"
       id="circle38"
       style="fill:#253237;fill-opacity:1" />
    <circle
       cx="46.618999"
       cy="16.257999"
       r="1"
       id="circle40"
       style="fill:#253237;fill-opacity:1" />
    <circle
       cx="40.863998"
       cy="16.257999"
       r="1"
       id="circle42"
       style="fill:#253237;fill-opacity:1" />
    <circle
       cx="37.987"
       cy="13.381"
       r="1"
       id="circle44"
       style="fill:#253237;fill-opacity:1" />
    <circle
       cx="35.109001"
       cy="10.503"
       r="1"
       id="circle46"
       style="fill:#253237;fill-opacity:1" />
    <circle
       cx="49.497002"
       cy="24.891001"
       r="1"
       id="circle48"
       style="fill:#253237;fill-opacity:1" />
    <circle
       cx="46.618999"
       cy="22.013"
       r="1"
       id="circle50"
       style="fill:#253237;fill-opacity:1" />
    <circle
       cx="43.742001"
       cy="19.136"
       r="1"
       id="circle52"
       style="fill:#253237;fill-opacity:1" />
  </g>
  <rect
     fill="#3b97d3"
     height="12.794067"
     rx="1.9996979"
     transform="rotate(45)"
     width="29.693516"
     x="28.302982"
     y="-7.120368"
     id="rect4"
     style="display:inline;fill:#c2dfe3;fill-opacity:1;stroke-width:0.999849" />
  <g
     aria-label="M5M"
     id="text219"
     style="font-size:8.75px;font-family:Krungthep;-inkscape-font-specification:Krungthep;display:inline;stroke-width:0.117188"
     transform="rotate(45,21.175319,19.134842)">
    <path
       d="m 24.883987,23.135593 v -6.5625 h 0.331543 l 3.117188,3.110352 3.113769,-3.110352 h 0.731446 v 6.5625 h -1.462891 v -4.012695 l -2.560058,2.560059 -2.539551,-2.560059 v 4.012695 z"
       style="fill:#253237;fill-opacity:1"
       id="path373" />
    <path
       d="m 33.63397,16.573093 h 4.375 l -0.0034,0.731446 h -2.915527 v 1.456054 h 1.462891 q 0.598144,0 1.02539,0.430664 0.430664,0.427247 0.430664,1.025391 v 1.462891 q 0,0.598144 -0.434082,1.028808 -0.430664,0.427246 -1.021972,0.427246 h -1.462891 q -1.288574,0 -1.456055,-1.456054 h 0.731446 q 0.05127,0.724609 0.724609,0.724609 h 0.731445 q 0.297364,0 0.512696,-0.211914 0.21875,-0.215332 0.21875,-0.512695 v -1.462891 q 0,-0.297363 -0.21875,-0.509277 -0.215332,-0.215332 -0.512696,-0.215332 h -2.1875 z"
       style="fill:#253237;fill-opacity:1"
       id="path375" />
    <path
       d="m 39.465012,23.135593 v -6.5625 h 0.331543 l 3.117187,3.110352 3.11377,-3.110352 h 0.731445 v 6.5625 h -1.462891 v -4.012695 l -2.560058,2.560059 -2.539551,-2.560059 v 4.012695 z"
       style="fill:#253237;fill-opacity:1"
       id="path377" />
  </g>
</svg>
